<?xml version="1.0" encoding="utf-8"?>
<!-- Generator: Adobe Illustrator 18.1.0, SVG Export Plug-In . SVG Version: 6.00 Build 0)  -->
<svg version="1.1" id="Amnet" xmlns="http://www.w3.org/2000/svg" xmlns:xlink="http://www.w3.org/1999/xlink" x="0px" y="0px"
	 width="324.3px" height="61px" viewBox="-1117 0 324.3 61" enable-background="new -1117 0 324.3 61" xml:space="preserve">
<g id="Letters">
	<path fill="#231F20" d="M-1003.5,46.9c0,5.3,1.3,6.5,1.3,8.5c0,2.8-2.7,4.8-5.7,4.8c-5.4,0-7.2-3.4-7.4-7.3
		c-4.9,5.4-10.6,7.3-17.2,7.3c-7.2,0-14.2-4.9-14.2-12.8c0-10.4,7.9-13.4,17.6-14.5l7.7-0.9c3-0.3,5.4-1,5.4-4.7
		c0-3.6-3.7-5.2-7.9-5.2c-9.3,0-9.6,6.9-14.6,6.9c-3.2,0-5.3-2.2-5.3-4.8c0-5,7.1-11.4,20-11.4c12.1,0,20.4,3.9,20.4,12.9
		L-1003.5,46.9L-1003.5,46.9z M-1016.1,37.9c-1.4,1.3-4,1.7-5.4,2l-4.6,0.7c-5.3,0.8-8.1,2.4-8.1,6.2c0,2.8,2.7,5.2,7,5.2
		c6.9,0,11.1-4.5,11.1-9.1V37.9z"/>
	<path fill="#231F20" d="M-995.3,19.1c0-3.8,2.2-6.3,5.9-6.3c3.7,0,5.9,2.5,5.9,6.3v1.6h0.2c3.3-5,8.8-7.9,15.2-7.9
		c4.3,0,9.7,2,12.1,7.9c3.5-4.9,8-7.9,14.8-7.9c8.7,0,15.7,4,15.7,15.3v25.8c0,3.4-1.4,6.3-6.3,6.3c-4.9,0-6.3-2.9-6.3-6.3V31.3
		c0-4.5-2-8.1-6.9-8.1c-4.8,0-9.1,3.9-9.1,9.7v21c0,3.4-1.4,6.3-6.3,6.3c-4.9,0-6.3-2.9-6.3-6.3V31.3c0-4.5-2-8.1-6.9-8.1
		c-4.8,0-9.1,3.9-9.1,9.7v21c0,3.4-1.4,6.3-6.3,6.3s-6.3-2.9-6.3-6.3L-995.3,19.1L-995.3,19.1z"/>
	<path fill="#231F20" d="M-918.1,19.1c0-3.8,1.7-6.3,5.7-6.3s5.7,2.5,5.7,6.3v1.6h0.2c3.5-4.7,8.1-7.9,15.3-7.9
		c7.6,0,15.9,3.8,15.9,16.6v24.5c0,3.4-1.4,6.3-6.3,6.3c-4.9,0-6.3-2.9-6.3-6.3v-22c0-5.1-2.5-8.7-7.9-8.7c-4.4,0-9.6,3.6-9.6,9.9
		v20.8c0,3.4-1.4,6.3-6.3,6.3c-4.9,0-6.3-2.9-6.3-6.3L-918.1,19.1L-918.1,19.1z"/>
	<path fill="#231F20" d="M-857.4,38.9c0,6.6,4.3,11.5,11.6,11.5c9.5,0,9.5-6.2,14.6-6.2c3,0,5.2,2.6,5.2,4.9
		c0,7.6-12.2,11.1-19.7,11.1c-17.6,0-24.2-11.9-24.2-22.8c0-14.7,8.9-24.5,23.8-24.5c14.5,0,22.8,10.3,22.8,20.6
		c0,4.3-1.3,5.4-5.5,5.4C-828.8,38.9-857.4,38.9-857.4,38.9z M-835.4,31.6c-0.7-5.8-5-10-10.6-10c-6.3,0-10.1,3.9-11.5,10H-835.4z"
		/>
	<path fill="#231F20" d="M-814.8,22.2h-2.2c-3.5,0-5-1.4-5-4.1c0-2.8,1.5-4.1,5-4.1h2.2V6.3c0-4.1,2.5-6.3,6.3-6.3s6.3,2.2,6.3,6.3
		V14h3.8c3.7,0,5.7,1.1,5.7,4.1s-2,4.1-5.7,4.1h-3.8v25.2c0,1.9,1,2.9,3.3,2.9h1.8c2.8,0,4.4,1.6,4.4,4.2c0,3.6-3.1,5.6-9.1,5.6
		c-9.1,0-12.9-3.8-12.9-11.2L-814.8,22.2L-814.8,22.2z"/>
</g>
<g id="Icon">
	<path fill="#F15924" d="M-1088.6,61c13.2,0,24.3-9.1,27.5-21.3l-43,16.6C-1099.6,59.3-1094.3,61-1088.6,61z"/>
	<path fill="#F15924" d="M-1114.9,21.8c-1.4,3.3-2.1,6.9-2.1,10.7c0,3.7,0.7,7.2,2,10.5l29.4-10.5L-1114.9,21.8z"/>
	<path fill="#F15924" d="M-1088.6,4.1c-5.6,0-10.8,1.6-15.3,4.5l42.8,16.4C-1064.5,12.9-1075.5,4.1-1088.6,4.1z"/>
</g>
</svg>
