<?xml version="1.0" encoding="utf-8"?>
<!-- Generator: Adobe Illustrator 18.1.0, SVG Export Plug-In . SVG Version: 6.00 Build 0)  -->
<svg version="1.1" id="Layer_1" xmlns="http://www.w3.org/2000/svg" xmlns:xlink="http://www.w3.org/1999/xlink" x="0px" y="0px"
	 width="6.8px" height="5.2px" viewBox="0 0 6.8 5.2" enable-background="new 0 0 6.8 5.2" xml:space="preserve">
<g>
	<path fill="#FFFFFF" d="M2.8,0.7C2.2,0.9,1.2,1.3,1,2.9c1.3-0.2,1.6,0.8,1.6,1.2c0,0.7-0.6,1.2-1.2,1.2C0.6,5.2,0,4.4,0,3.4
		C0,2.2,0.6,0.6,2.8,0V0.7z M6.8,0.7C6.2,0.9,5.2,1.3,5.1,2.9c1.3-0.2,1.6,0.8,1.6,1.2c0,0.7-0.6,1.2-1.2,1.2C4.6,5.2,4,4.4,4,3.4
		C4,2.2,4.7,0.6,6.8,0V0.7z"/>
</g>
</svg>
