<?xml version="1.0" encoding="utf-8"?>
<!-- Generator: Adobe Illustrator 18.1.0, SVG Export Plug-In . SVG Version: 6.00 Build 0)  -->
<svg version="1.1" id="Layer_1" xmlns="http://www.w3.org/2000/svg" xmlns:xlink="http://www.w3.org/1999/xlink" x="0px" y="0px"
	 width="18.6px" height="18.6px" viewBox="0 0 18.6 18.6" enable-background="new 0 0 18.6 18.6" xml:space="preserve">
<g>
	<path fill="#221F1F" d="M13.1,8.4L13.1,8.4c0.1-0.2,0.2-0.4,0.2-0.6C13.4,7.4,13,7,12.5,7c-0.3,0-0.5,0.1-0.6,0.3l0,0L9.3,10
		L6.7,7.2l0,0C6.6,7.1,6.4,7,6.1,7C5.6,7,5.2,7.4,5.2,7.8c0,0.2,0.1,0.4,0.2,0.6l0,0l3.2,3.5c0.2,0.2,0.4,0.3,0.6,0.3
		c0.2,0,0.5-0.1,0.6-0.3L13.1,8.4z M18.6,9.3c0-5.1-4.2-9.3-9.3-9.3C4.2,0,0,4.2,0,9.3c0,5.1,4.2,9.3,9.3,9.3
		C14.4,18.6,18.6,14.4,18.6,9.3z M1.7,9.3c0-4.2,3.4-7.5,7.5-7.5s7.5,3.4,7.5,7.5c0,4.2-3.4,7.5-7.5,7.5S1.7,13.5,1.7,9.3z"/>
</g>
</svg>
